# xmcd
#
# Track frame offsets:
#	150
#	22427
#	43167
#	72199
#	89733
#	105985
#	126087
#	150164
#	169566
#	192205
#	208570
#	224947
#	243211
#	263851
#	290078
#
# Disc length: 4160 seconds
#
# Revision: 0
# Processed by: cddbd v1.4PL0 Copyright (c) Steve Scherf et al.
# Submitted via: dBpowerAMP V4.0
#
DISCID=e1103e0f
DTITLE=Elton John - Duets
DYEAR=1900
DGENRE=Duet
TTITLE0=Teardrops
TTITLE1=When I Think About Love
TTITLE2=The Power
TTITLE3=Shakey Ground
TTITLE4=True Love
TTITLE5=If You Were Me
TTITLE6=A Woman´s Needs
TTITLE7=Old Friend
TTITLE8=Don´t Go Breaking My Heart
TTITLE9=Ain´t Nothing Like The Real Thing
TTITLE10=I´m Your Puppet
TTITLE11=Love Letters
TTITLE12=Born To Lose
TTITLE13=Don´t Let The Sun Go Down On Me
TTITLE14=Duets For One
EXTD=
EXTT0=
EXTT1=
EXTT2=
EXTT3=
EXTT4=
EXTT5=
EXTT6=
EXTT7=
EXTT8=
EXTT9=
EXTT10=
EXTT11=
EXTT12=
EXTT13=
EXTT14=
PLAYORDER=
